{"title":"18+ Amateur Night 2016 UNCENSORED Movies HDRip XviD ESubs New ☻r","uid":15550482,"size":741076681,"categoryP":"video","categoryS":"movies","magnet":"?xt=urn:btih:558672a7467687598339c179e83fdda68dc6ada2&amp;dn=18%2B+Amateur+Night+2016+UNCENSORED+Movies+HDRip+XviD+ESubs+New+%E2%98%BBr&amp;tr=udp%3A%2F%2Ftracker.leechers-paradise.org%3A6969&amp;tr=udp%3A%2F%2Fzer0day.ch%3A1337&amp;tr=udp%3A%2F%2Fopen.demonii.com%3A1337&amp;tr=udp%3A%2F%2Ftracker.coppersurfer.tk%3A6969&amp;tr=udp%3A%2F%2Fexodus.desync.com%3A6969","seeders":2,"leechers":3,"uploader":"basicssom","files":3,"time":1471018102,"description":"----------------------------------------------------------------\r\n18+ Amateur Night 2016 UNCENSORED English Movies HDRip XviD ESubs AAC New Source with Sample ☻rDX☻\r\n\r\nSCREEN SHOTS &amp; POSTER:\r\n  \nhttp://postimage.co.nr/2016/8/samsung/index.htm  \nhttp://postimage.co.nr/2016/8/samsung/1.html  \nhttp://postimage.co.nr/2016/8/samsung/2.html  \nhttp://postimage.co.nr/2016/8/samsung/3.html  \nhttp://postimage.co.nr/2016/8/samsung/4.html  \nhttp://postimage.co.nr/2016/8/samsung/5.html  \nhttp://postimage.co.nr/2016/8/samsung/6.html  \nhttp://postimage.co.nr/2016/8/samsung/7.html  \nhttp://postimage.co.nr/2016/8/samsung/8.html  \nhttp://postimage.co.nr/2016/8/samsung/9.html  \nhttp://postimage.co.nr/2016/8/samsung/10.html\r\n\r\nFormat                                   : Matroska\r\nFormat version                           : Version 4 / Version 2\r\nFile size                                : 694 MiB\r\nDuration                                 : 1 h 29 min\r\nOverall bit rate                         : 1 084 kb/s\r\n\r\nVideo\r\nID                                       : 1\r\nFormat                                   : MPEG-4 Visual\r\nFormat profile                           : Advanced   \r\nFormat settings, BVOP                    : 2\r\nFormat settings, QPel                    : No\r\nFormat settings, GMC                     : No warppoints\r\nFormat settings, Matrix                  : Default (H.263)\r\nMuxing mode                              : Packed bitstream\r\nCodec ID                                 : V_MS/VFW/FOURCC / XVID\r\nCodec ID/Hint                            : XviD\r\nDuration                                 : 1 h 29 min\r\nBit rate                                 : 934 kb/s\r\nWidth                                    : 640 pixels\r\nHeight                                   : 272 pixels\r\nDisplay aspect ratio                     : 2.35:1\r\nFrame rate mode                          : Constant\r\nFrame rate                               : 23.976 (24000/1001) FPS\r\nColor space                              : YUV\r\nChroma subsampling                       : 4:2:0\r\nBit depth                                : 8 bits\r\nScan type                                : Progressive\r\nCompression mode                         : Lossy\r\nBits/(Pixel*Frame)                       : 0.224\r\nStream size                              : 598 MiB (86%)\r\nWriting library                          : XviD 64\r\nDefault                                  : Yes\r\nForced                                   : No\r\n\r\nAudio\r\nID                                       : 2\r\nFormat                                   : MPEG Audio\r\nFormat version                           : Version 1\r\nFormat profile                           : Layer 3\r\nMode                                     : Joint stereo\r\nMode extension                           : MS Stereo\r\nCodec ID                                 : A_MPEG/L3\r\nCodec ID/Hint                            : MP3\r\nDuration                                 : 1 h 29 min\r\nBit rate mode                            : Constant\r\nBit rate                                 : 128 kb/s\r\nChannel(s)                               : 2 channels\r\nSampling rate                            : 48.0 kHz\r\nCompression mode                         : Lossy\r\nStream size                              : 81.9 MiB (12%)\r\nWriting library                          : LAME3.99r\r\nEncoding settings                        : -m j -V 4 -q 3 -lowpass 17 -b 128\r\nDefault                                  : Yes\r\nForced                                   : No\r\n\r\nIMDB \nhttp://www.imdb.com/title/tt4265508/","torrent":{"xt":"urn:btih:558672a7467687598339c179e83fdda68dc6ada2","amp;dn":"18%2B+Amateur+Night+2016+UNCENSORED+Movies+HDRip+XviD+ESubs+New+%E2%98%BBr","amp;tr":["udp%3A%2F%2Ftracker.leechers-paradise.org%3A6969","udp%3A%2F%2Fzer0day.ch%3A1337","udp%3A%2F%2Fopen.demonii.com%3A1337","udp%3A%2F%2Ftracker.coppersurfer.tk%3A6969","udp%3A%2F%2Fexodus.desync.com%3A6969"],"infoHash":"558672a7467687598339c179e83fdda68dc6ada2","infoHashBuffer":{"type":"Buffer","data":[85,134,114,167,70,118,135,89,131,57,193,121,232,63,221,166,141,198,173,162]},"announce":[],"urlList":[]}}